<?xml version="1.0" encoding="UTF-8" standalone="no"?>
<!-- Created with Inkscape (http://www.inkscape.org/) -->

<svg
   width="57.48867mm"
   height="13.19189mm"
   viewBox="0 0 57.48867 13.19189"
   version="1.1"
   id="svg1"
   inkscape:version="1.4 (e7c3feb100, 2024-10-09)"
   sodipodi:docname="bm_name_bars.svg"
   xmlns:inkscape="http://www.inkscape.org/namespaces/inkscape"
   xmlns:sodipodi="http://sodipodi.sourceforge.net/DTD/sodipodi-0.dtd"
   xmlns="http://www.w3.org/2000/svg"
   xmlns:svg="http://www.w3.org/2000/svg">
  <sodipodi:namedview
     id="namedview1"
     pagecolor="#ffffff"
     bordercolor="#000000"
     borderopacity="0.25"
     inkscape:showpageshadow="2"
     inkscape:pageopacity="0.0"
     inkscape:pagecheckerboard="0"
     inkscape:deskcolor="#d1d1d1"
     inkscape:document-units="mm"
     inkscape:zoom="4"
     inkscape:cx="115.75"
     inkscape:cy="-29.125"
     inkscape:window-width="3400"
     inkscape:window-height="1352"
     inkscape:window-x="0"
     inkscape:window-y="0"
     inkscape:window-maximized="0"
     inkscape:current-layer="layer1" />
  <defs
     id="defs1" />
  <g
     inkscape:label="Layer 1"
     inkscape:groupmode="layer"
     id="layer1"
     transform="translate(-76.2,-141.85417)">
    <path
       d="M 81.327231,155.00352 H 78.763616 76.2 v -0.33867 -0.33867 h 28.74433 28.74434 v 0.33867 0.33867 h -2.37067 -2.37067 l -23.55864,1e-5 h -0.2307 -0.2307 m -21.48829,10e-4 -0.5715,-6.3e-4 -0.5715,-6.4e-4 m 45.80467,-0.007 -0.60234,0.0249 -0.60233,0.0249 m -22.92533,-0.0423 H 100.457 96.943333 l -1.016471,-0.002 c -1.535231,-0.002 -0.03587,0.002 -0.03587,0.002 h -1.62803 -1.628027 -1.025602 -0.759883 -0.759884 m 30.137184,0 h -0.72148 -0.72148 -1.03049 l -1.66311,0.002 -1.6631,0.002 c 0,0 -1.44209,-0.0821 -1.38907,-0.0714 l 0.33073,0.0669 h -3.51375 -3.51367 l -0.008,-0.14441 M 89.141994,155.0035 H 87.962664 86.783333 85.852 85.125606 84.399212 m 41.500118,0 H 125.17967 124.46 l -0.96207,-0.005 -1.1488,0.0235 -1.1488,0.0234 m -37.022824,-3.77292 c -0.199188,-0.0393 -0.554415,-0.17601 -0.789394,-0.3039 l -0.427233,-0.23253 -0.249556,-0.31509 c -0.137256,-0.1733 -0.331133,-0.4991 -0.430839,-0.72399 l -0.181282,-0.4089 -0.03918,-0.60524 -0.03918,-0.60524 0.145249,-0.46179 0.14525,-0.46178 0.309833,-0.40628 0.309834,-0.40628 0.430562,-0.24149 0.430563,-0.2415 0.500771,-0.0934 0.500771,-0.0934 0.565003,0.10019 0.565003,0.10019 0.444578,0.26864 0.444577,0.26863 0.282144,0.41222 0.282143,0.41223 0.137318,0.47235 0.137319,0.47236 -0.04806,0.57323 -0.04806,0.57323 -0.16694,0.3774 -0.16694,0.3774 -0.363573,0.39443 -0.363572,0.39443 -0.300139,0.15176 c -0.59364,0.30018 -1.31519,0.39034 -2.016966,0.25204 z m 1.528573,-0.73384 0.27044,-0.15795 0.273018,-0.35795 0.273018,-0.35795 0.08758,-0.31536 c 0.04817,-0.17345 0.0878,-0.5467 0.08806,-0.82944 l 4.73e-4,-0.51409 -0.138565,-0.40666 -0.138565,-0.40667 -0.348269,-0.36157 -0.348268,-0.36157 -0.338667,-0.093 c -0.424072,-0.11651 -0.674834,-0.11725 -1.085492,-0.003 l -0.323493,0.0898 -0.322552,0.29141 -0.322553,0.29141 -0.192104,0.44379 -0.192104,0.44379 0.0028,0.5965 0.0028,0.5965 0.184771,0.42952 0.18477,0.42951 0.280103,0.27148 0.280102,0.27149 0.328103,0.122 0.328104,0.12201 0.447986,-0.0379 0.447986,-0.0379 z m 4.567427,0.73384 c -0.199188,-0.0393 -0.554415,-0.17601 -0.789394,-0.3039 l -0.427233,-0.23253 -0.249556,-0.31509 c -0.137256,-0.1733 -0.331134,-0.4991 -0.430839,-0.72399 l -0.181282,-0.4089 -0.03918,-0.60524 -0.03918,-0.60524 0.145249,-0.46179 0.145249,-0.46178 0.309834,-0.40628 0.309834,-0.40628 0.430562,-0.24149 0.430563,-0.2415 0.500771,-0.0934 0.50077,-0.0934 0.565004,0.10019 0.565003,0.10019 0.444577,0.26864 0.444578,0.26863 0.282144,0.41222 0.282143,0.41223 0.137318,0.47235 0.137318,0.47236 -0.04806,0.57323 -0.04806,0.57323 -0.16694,0.3774 -0.16694,0.3774 -0.363573,0.39443 -0.363572,0.39443 -0.300139,0.15176 c -0.59364,0.30018 -1.31519,0.39034 -2.016966,0.25204 z m 1.528573,-0.73384 0.27044,-0.15795 0.273018,-0.35795 0.273018,-0.35795 0.08758,-0.31536 c 0.04817,-0.17345 0.0878,-0.5467 0.08806,-0.82944 l 4.72e-4,-0.51409 -0.138564,-0.40666 -0.138565,-0.40667 -0.348269,-0.36157 -0.348268,-0.36157 -0.338667,-0.093 c -0.424072,-0.11651 -0.674834,-0.11725 -1.085492,-0.003 l -0.323493,0.0898 -0.322552,0.29141 -0.322553,0.29141 -0.192104,0.44379 -0.192105,0.44379 0.0028,0.5965 0.0028,0.5965 0.184771,0.42952 0.184771,0.42951 0.280102,0.27148 0.280103,0.27149 0.328103,0.122 0.328103,0.12201 0.447986,-0.0379 0.447987,-0.0379 z m 6.792254,0.74459 c -0.1397,-0.034 -0.375856,-0.12532 -0.52479,-0.20291 l -0.27079,-0.14107 -0.205915,-0.27526 c -0.113254,-0.15139 -0.421507,-0.62635 -0.685008,-1.05546 -0.2635,-0.42912 -0.517751,-0.8041 -0.565001,-0.8333 l -0.08591,-0.0531 -0.291214,0.1983 -0.291215,0.19831 -5.82e-4,0.65318 -5.82e-4,0.65319 0.163767,0.0876 c 0.09007,0.0482 0.242472,0.0876 0.338667,0.0876 h 0.174906 l -0.0012,0.14817 c -6.35e-4,0.0815 -0.02413,0.23389 -0.05221,0.33867 l -0.05105,0.1905 H 95.292297 94.33838 l -0.05105,-0.1905 c -0.02808,-0.10478 -0.05157,-0.25718 -0.05221,-0.33867 l -0.0012,-0.14817 h 0.174899 c 0.0962,0 0.248595,-0.0394 0.338667,-0.0876 l 0.163775,-0.0876 v -1.85276 c 0,-1.01902 -0.02313,-1.91303 -0.05139,-1.98669 l -0.05139,-0.13392 H 94.65513 c -0.08434,0 -0.213616,-0.0231 -0.287275,-0.0514 l -0.133855,-0.051 v -0.16584 c 0,-0.0912 0.03944,-0.23953 0.08765,-0.32961 l 0.08765,-0.16376 h 0.918479 0.91848 l 0.05105,0.1905 c 0.02808,0.10477 0.05157,0.25339 0.05221,0.33025 l 0.0012,0.13976 -0.3175,0.0749 -0.3175,0.0749 -0.02403,0.90714 -0.02403,0.90715 h 0.05317 c 0.02924,0 0.52583,-0.36851 1.103531,-0.81891 l 1.050359,-0.81892 v -0.11242 -0.11241 h -0.122003 c -0.187178,0 -0.218274,-0.11407 -0.124089,-0.45518 l 0.08622,-0.31228 0.947767,0.0239 0.947767,0.0239 v 0.33867 0.33866 l -0.264568,0.0257 -0.264567,0.0257 -1.106067,0.93117 -1.106067,0.93116 0.682841,0.92879 0.682842,0.92879 0.252219,0.17959 0.252219,0.1796 0.477907,0.0514 0.477908,0.0514 0.02654,0.27522 0.02653,0.27522 -0.222547,0.0846 c -0.250172,0.0951 -0.555517,0.0969 -0.93119,0.005 z M 115.0475,151.257 c -0.0724,-0.0582 -0.82634,-1.06786 -1.67553,-2.24367 -0.8492,-1.1758 -1.55929,-2.13783 -1.57798,-2.13783 -0.0187,0 -0.034,0.81742 -0.034,1.8165 v 1.81649 l 0.30083,0.0564 0.30083,0.0564 -0.0257,0.30723 -0.0257,0.30723 -0.91172,0.0241 -0.91172,0.024 -0.0398,-0.10871 c -0.0219,-0.0598 -0.0498,-0.19801 -0.0619,-0.30714 l -0.0222,-0.19843 0.29634,-0.0979 0.29633,-0.0979 v -1.97856 -1.97856 l -0.29633,-0.0982 -0.29634,-0.0982 0.0222,-0.20926 c 0.0122,-0.1151 0.0396,-0.25689 0.0609,-0.3151 l 0.0387,-0.10583 h 0.67515 0.67516 l 0.44933,0.57703 c 0.24714,0.31736 0.88749,1.19257 1.42301,1.94491 0.53551,0.75233 1.00224,1.36897 1.03716,1.3703 l 0.0635,0.002 -0.001,-1.4605 -10e-4,-1.4605 -0.0622,-0.0952 c -0.0342,-0.0524 -0.18603,-0.12206 -0.33737,-0.15489 l -0.27516,-0.0597 v -0.19802 c 0,-0.1089 0.0231,-0.25828 0.0514,-0.33193 l 0.0514,-0.13393 h 0.9124 0.9124 l 0.0511,0.1905 c 0.0281,0.10478 0.0516,0.25339 0.0522,0.33026 l 0.001,0.13975 -0.3175,0.0754 -0.3175,0.0754 v 2.34905 2.34905 l -0.127,0.0803 c -0.16587,0.10487 -0.19681,0.10286 -0.35317,-0.0229 z m -38.380646,-0.0773 c -0.02283,-0.0623 -0.05149,-0.20802 -0.06368,-0.32388 l -0.02217,-0.21064 0.296333,-0.0434 0.296334,-0.0434 v -2.032 -2.032 l -0.296334,-0.0979 -0.296333,-0.0979 0.02217,-0.19842 c 0.0122,-0.10914 0.03957,-0.24605 0.06084,-0.30426 l 0.03867,-0.10583 1.505491,4.7e-4 1.505491,4.8e-4 0.338666,0.0938 c 0.186267,0.0516 0.447882,0.17144 0.581366,0.26632 l 0.2427,0.17252 0.157607,0.34704 0.157608,0.34704 0.0019,0.27937 0.0019,0.27937 -0.125308,0.24232 c -0.06892,0.13328 -0.220836,0.31747 -0.337592,0.40931 l -0.212284,0.16698 0.25464,0.10547 0.25464,0.10548 0.207697,0.24683 0.207697,0.24684 0.100323,0.33485 0.100324,0.33485 -0.100324,0.33485 -0.100323,0.33485 -0.227782,0.2707 -0.22778,0.27071 -0.383797,0.17669 -0.383782,0.17669 -1.756653,0.0295 -1.756652,0.0295 z m 3.739384,-0.71499 0.238646,-0.17843 0.115378,-0.30314 0.115378,-0.30315 -0.157654,-0.31729 -0.157653,-0.3173 -0.239019,-0.1748 -0.23902,-0.1748 -1.009814,-0.0301 -1.009813,-0.0301 v 1.03183 1.03182 l 1.052462,-0.0281 1.052462,-0.0281 z m -0.220392,-2.65139 0.247487,-0.24749 v -0.35365 -0.35364 L 80.145467,146.5707 79.8576,146.28283 h -0.897467 -0.897466 v 0.889 0.889 h 0.937846 0.937846 z m 20.118524,3.40132 c -0.0196,-0.0349 -0.0609,-0.16911 -0.0917,-0.2982 l -0.0561,-0.23469 0.10791,-0.0334 c 0.0593,-0.0184 0.21338,-0.0565 0.34227,-0.0848 l 0.23436,-0.0514 -0.0227,-1.99777 -0.0227,-1.99777 -0.29634,-0.0981 -0.29633,-0.0981 0.0222,-0.20926 c 0.0122,-0.11509 0.0396,-0.25688 0.0608,-0.31509 l 0.0387,-0.10583 h 0.70976 0.70976 l 0.46302,0.99483 c 0.25466,0.54716 0.68825,1.51749 0.96354,2.15629 l 0.50052,1.16146 0.0576,-0.0608 c 0.0317,-0.0334 0.36756,-0.78469 0.74645,-1.66946 0.37889,-0.88477 0.79182,-1.81822 0.91762,-2.07433 l 0.22874,-0.46567 h 0.71966 0.71967 l 0.0274,0.28746 0.0275,0.28745 -0.11212,0.0711 c -0.0617,0.0391 -0.19784,0.0717 -0.30261,0.0724 l -0.1905,0.001 v 2.02294 2.02294 l 0.13392,0.0514 c 0.0737,0.0283 0.20701,0.0514 0.29633,0.0514 h 0.16241 l -10e-4,0.23284 c -7.9e-4,0.12806 -0.0324,0.28181 -0.0704,0.34167 l -0.0691,0.10885 -0.92447,-0.0242 -0.92448,-0.0242 -0.0263,-0.3175 -0.0263,-0.3175 0.19561,-10e-4 c 0.10759,-7.1e-4 0.24405,-0.032 0.30325,-0.0696 l 0.10763,-0.0683 -0.023,-1.70561 -0.023,-1.70561 -0.80059,1.86591 c -0.44032,1.02626 -0.85205,1.93941 -0.91496,2.02922 l -0.11438,0.16331 h -0.19717 -0.19716 l -0.46704,-1.03717 c -0.25687,-0.57044 -0.64812,-1.45627 -0.86945,-1.9685 -0.22132,-0.51223 -0.43462,-0.96753 -0.47399,-1.01177 l -0.0716,-0.0804 v 1.69333 1.69334 l 0.1016,0.1016 c 0.0559,0.0559 0.18698,0.1016 0.29133,0.1016 0.10436,0 0.21386,0.039 0.24334,0.0867 l 0.0536,0.0867 -0.0553,0.25194 -0.0553,0.25193 h -0.87726 -0.87728 z m 7.44499,-0.127 c -0.0281,-0.10478 -0.0516,-0.25294 -0.0522,-0.32925 l -10e-4,-0.13874 0.28816,-0.0541 0.28816,-0.0541 0.0505,-0.13162 c 0.0278,-0.0724 0.0499,-0.93813 0.0492,-1.92386 l -0.001,-1.79225 -0.0622,-0.0952 c -0.0342,-0.0524 -0.18603,-0.12206 -0.33737,-0.1549 l -0.27517,-0.0597 v -0.19802 c 0,-0.10891 0.0231,-0.25828 0.0514,-0.33194 l 0.0514,-0.13392 h 0.95474 0.95473 l 0.0511,0.1905 c 0.0281,0.10477 0.0516,0.25045 0.0522,0.32373 l 0.001,0.13324 -0.3175,0.0784 -0.3175,0.0784 v 1.98967 1.98966 l 0.3175,0.0784 0.3175,0.0784 -0.001,0.13323 c -5.3e-4,0.0733 -0.0241,0.21896 -0.0522,0.32374 l -0.0511,0.1905 h -0.95399 -0.95392 z m 9.01354,0.0353 c -0.0507,-0.0948 -0.0922,-0.25104 -0.0922,-0.34724 v -0.1749 h 0.23706 0.23707 l 0.1016,-0.1016 0.1016,-0.1016 v -1.92742 -1.92742 l -0.16377,-0.0876 c -0.0901,-0.0482 -0.24247,-0.0876 -0.33866,-0.0876 h -0.1749 v -0.19548 c 0,-0.10752 0.0502,-0.26409 0.11147,-0.34793 l 0.11146,-0.15244 1.64721,0.0304 1.64721,0.0304 0.56993,0.28061 0.56994,0.28061 0.2966,0.38845 0.29661,0.38845 0.12645,0.42581 0.12645,0.4258 v 0.61646 0.61646 l -0.17216,0.46013 -0.17215,0.46013 -0.33266,0.37791 -0.33265,0.37792 -0.44769,0.19867 -0.44769,0.19868 -1.70694,0.0334 -1.70693,0.0333 z m 3.42143,-0.59749 c 0.43002,-0.19847 0.6637,-0.45392 0.89636,-0.9799 l 0.18497,-0.41814 0.007,-0.55447 0.007,-0.55447 -0.15088,-0.43964 -0.15089,-0.43964 -0.31501,-0.32459 -0.315,-0.32459 -0.3458,-0.1036 -0.34579,-0.10361 H 118.88334 118.11 v 2.20134 2.20133 l 0.86783,-0.002 0.86784,-0.002 z m 2.56939,0.54642 -0.094,-0.20627 0.0508,-0.1324 0.0508,-0.1324 h 0.19739 0.19739 l 0.1016,-0.1016 0.1016,-0.1016 v -1.92742 -1.92742 l -0.16376,-0.0876 c -0.0901,-0.0482 -0.24248,-0.0876 -0.33867,-0.0876 h -0.1749 v -0.1749 c 0,-0.0962 0.0394,-0.24859 0.0876,-0.33867 l 0.0876,-0.16376 h 1.90412 1.90411 l 0.0832,0.21875 c 0.0457,0.12032 0.14345,0.48379 0.21713,0.80772 l 0.13396,0.58897 -0.10259,0.12361 -0.10259,0.12361 h -0.19286 -0.19285 l -0.1005,-0.4445 c -0.0553,-0.24447 -0.11916,-0.51232 -0.14197,-0.59522 l -0.0414,-0.15072 -1.03065,0.0237 -1.03065,0.0237 -0.0243,0.82883 -0.0243,0.82883 0.44761,-0.0657 c 0.24618,-0.0361 0.57467,-0.0632 0.72997,-0.0602 l 0.28237,0.006 0.0762,0.12035 c 0.0419,0.0662 0.0768,0.20391 0.0775,0.30604 l 0.001,0.1857 -0.17847,0.125 -0.17847,0.12501 -0.26603,-0.16222 -0.26603,-0.16222 -0.36237,-3.2e-4 -0.36236,-3.2e-4 0.0237,1.0795 0.0237,1.0795 1.10537,0.0235 1.10537,0.0235 0.19639,-0.67967 0.1964,-0.67968 h 0.14255 c 0.0784,0 0.21295,0.0515 0.29897,0.11437 l 0.15642,0.11438 -0.10308,0.41479 c -0.0567,0.22814 -0.16061,0.61482 -0.23091,0.85929 l -0.12782,0.4445 h -2.02781 -2.02781 z m 4.92127,0.0326 -0.093,-0.1737 0.0265,-0.18614 0.0265,-0.18613 0.21167,-0.0293 c 0.11641,-0.0161 0.25929,-0.0684 0.3175,-0.1162 l 0.10583,-0.0869 v -1.8777 -1.8777 l -0.1016,-0.1016 -0.1016,-0.1016 h -0.23707 -0.23706 v -0.19548 c 0,-0.10752 0.0501,-0.26402 0.11135,-0.34778 l 0.11136,-0.15228 1.68781,0.0373 1.68781,0.0373 0.29633,0.13419 c 0.31305,0.14175 0.67778,0.49005 0.83632,0.79865 l 0.095,0.18494 v 0.34844 0.34843 l -0.12531,0.24232 c -0.16656,0.32208 -0.50091,0.57565 -0.90116,0.68342 l -0.32702,0.0881 0.28965,0.25432 0.28964,0.25431 0.22601,0.59144 c 0.1243,0.32529 0.28216,0.6476 0.35081,0.71625 l 0.1248,0.12481 0.22679,0.001 c 0.12473,7.2e-4 0.27774,0.0336 0.34003,0.0731 l 0.11324,0.0718 -0.0286,0.2013 -0.0286,0.20129 -0.23719,0.11334 -0.23718,0.11333 -0.33285,-0.0562 -0.33283,-0.0562 -0.20657,-0.24548 -0.20656,-0.24549 -0.18155,-0.48815 c -0.0999,-0.26849 -0.27792,-0.65358 -0.39571,-0.85577 l -0.21415,-0.36761 -0.35171,-0.1597 -0.3517,-0.15969 -0.4445,-0.002 -0.4445,-0.002 10e-4,0.8255 0.001,0.8255 0.0625,0.0982 0.0625,0.0982 0.253,0.0288 0.253,0.0288 0.0294,0.15486 c 0.0162,0.0852 0.006,0.2471 -0.0221,0.35983 l -0.0515,0.20497 h -0.92674 -0.92674 z m 3.69381,-3.3315 0.28787,-0.28787 v -0.22824 -0.22823 l -0.14445,-0.24453 -0.14445,-0.24453 -0.27051,-0.12837 -0.27052,-0.12837 h -0.89737 -0.89737 v 0.889 0.889 h 1.02447 1.02446 z M 76.2,142.26117 v -0.381 h 3.3763 3.376299 l 1.083977,-0.003 c -1.353147,-8.5e-4 20.213194,0.003 20.213194,0.003 h 0.94163 0.94163 l 8.47605,0.002 12.84662,-0.002 h 3.11648 3.11649 v 0.381 0.381 H 104.94433 76.2 Z m 9.985597,-0.381 h 1.853491 1.85349 c 0,0 -0.06434,-6.9e-4 2.726967,-0.006 l 0.376453,0.001 1.427437,-0.001 1.417103,0.007 1.012105,-0.009 3.220347,-0.009 3.22034,-0.009 c -6.40817,0.0251 -12.816527,0.049 -19.232785,0.0256 h 0.53728 0.53728 z m 27.234663,0.18358 c -0.009,0.0322 0.7095,0.0149 0.7095,0.0149 l 1.72645,-0.0876 1.44946,-0.11244 3.11612,0.005 1.87253,0.0227 0.11553,0.0557 2.76964,-0.0817 h 0.53874 0.53873 c 0,0 -15.95371,0.38005 -15.95871,0.18459 l -0.005,-0.085 -0.0245,0.006 3.18717,-0.052 z"
       style="fill:#000000;stroke-width:0.264583"
       id="path1"
       sodipodi:nodetypes="cccccccccccccccccccccccsccccccccccccscccccccccccccccccscsscccccccccccccccccccccccccsccccccssccccccccccccccccccccccccscsscccccccccccccccccccccccccsccccccssccccccccccccccccccccccccscssscccccssccscccsccsccsscsccsscccsccccccsscccsscccccccccccccccccscccssscccccccsccccccccsscccsscccccscsccccsccccccscccscccccccsscccsscccccssccccccccccccccccccccccccccccccccccccccccccccccccccccccsccccssccssccccccccccssccsccccccccccsscccssccccssscccccccccccscccscsccccsccccccccsscccccscccccccsscsccccccccccccccccccccccsccccccccccccccccccccccccccsscssccccscccccccccccccccsccccccccccccccsccssccccccccsscccccccsscccsscccsccccssccsccccccccccscccccccccccccccccccccccccccccccccccccccccccccccccccccccccccccccscccccccccscccs" />
  </g>
</svg>
