<?xml version="1.0" encoding="UTF-8" standalone="no"?>
<!-- Created with Inkscape (http://www.inkscape.org/) -->

<svg
   width="56.445122mm"
   height="5.6835613mm"
   viewBox="0 0 56.445122 5.6835613"
   version="1.1"
   id="svg1"
   inkscape:version="1.4 (e7c3feb100, 2024-10-09)"
   sodipodi:docname="bm_name.svg"
   xmlns:inkscape="http://www.inkscape.org/namespaces/inkscape"
   xmlns:sodipodi="http://sodipodi.sourceforge.net/DTD/sodipodi-0.dtd"
   xmlns="http://www.w3.org/2000/svg"
   xmlns:svg="http://www.w3.org/2000/svg">
  <sodipodi:namedview
     id="namedview1"
     pagecolor="#ffffff"
     bordercolor="#000000"
     borderopacity="0.25"
     inkscape:showpageshadow="2"
     inkscape:pageopacity="0.0"
     inkscape:pagecheckerboard="0"
     inkscape:deskcolor="#d1d1d1"
     inkscape:document-units="mm"
     inkscape:zoom="1.0164632"
     inkscape:cx="146.58671"
     inkscape:cy="304.48715"
     inkscape:window-width="1688"
     inkscape:window-height="1352"
     inkscape:window-x="0"
     inkscape:window-y="0"
     inkscape:window-maximized="0"
     inkscape:current-layer="layer1" />
  <defs
     id="defs1" />
  <g
     inkscape:label="Layer 1"
     inkscape:groupmode="layer"
     id="layer1"
     transform="translate(-65.997667,-67.884146)">
    <path
       d="m 73.594173,73.485408 c -0.199188,-0.03926 -0.554415,-0.176011 -0.789394,-0.303902 l -0.427233,-0.23253 -0.249556,-0.31509 c -0.137256,-0.1733 -0.331133,-0.499094 -0.430839,-0.723988 L 71.515869,71.501 l -0.03918,-0.60524 -0.03918,-0.605241 0.145249,-0.461785 0.14525,-0.461785 0.309833,-0.406277 0.309834,-0.406278 0.430562,-0.241495 0.430563,-0.241495 0.500771,-0.09336 0.500771,-0.09336 0.565003,0.100186 0.565003,0.100186 0.444578,0.268639 0.444577,0.268639 0.282144,0.41222 0.282143,0.412221 0.137318,0.472358 0.137319,0.472359 -0.04806,0.573231 -0.04806,0.573232 -0.16694,0.377396 -0.16694,0.377396 -0.363573,0.39443 -0.363572,0.394429 -0.300139,0.151766 c -0.59364,0.300174 -1.31519,0.390338 -2.016966,0.252036 z m 1.528573,-0.733838 0.27044,-0.157945 0.273018,-0.357951 0.273018,-0.35795 0.08758,-0.315362 c 0.04817,-0.173449 0.0878,-0.5467 0.08806,-0.829446 l 4.73e-4,-0.514084 -0.138565,-0.406666 -0.138565,-0.406665 -0.348269,-0.361572 -0.348268,-0.361573 -0.338667,-0.09304 c -0.424072,-0.116502 -0.674834,-0.117244 -1.085492,-0.0032 l -0.323493,0.08983 -0.322552,0.291407 -0.322553,0.291406 -0.192104,0.443793 -0.192104,0.443792 0.0028,0.596501 0.0028,0.596501 0.184771,0.429512 0.18477,0.429512 0.280103,0.271485 0.280102,0.271486 0.328103,0.122006 0.328104,0.122005 0.447986,-0.03791 0.447986,-0.03791 z m 4.567427,0.733838 c -0.199188,-0.03926 -0.554415,-0.176011 -0.789394,-0.303902 l -0.427233,-0.23253 -0.249556,-0.31509 c -0.137256,-0.1733 -0.331134,-0.499094 -0.430839,-0.723988 L 77.611869,71.501 l -0.03918,-0.60524 -0.03918,-0.605241 0.145249,-0.461785 0.145249,-0.461785 0.309834,-0.406277 0.309834,-0.406278 0.430562,-0.241495 0.430563,-0.241495 0.500771,-0.09336 0.50077,-0.09336 0.565004,0.100186 0.565003,0.100186 0.444577,0.268639 0.444578,0.268639 0.282144,0.41222 0.282143,0.412221 0.137318,0.472358 0.137318,0.472359 -0.04806,0.573231 -0.04806,0.573232 -0.16694,0.377396 -0.16694,0.377396 -0.363573,0.39443 -0.363572,0.394429 -0.300139,0.151766 c -0.59364,0.300174 -1.31519,0.390338 -2.016966,0.252036 z m 1.528573,-0.733838 0.27044,-0.157945 0.273018,-0.357951 0.273018,-0.35795 0.08758,-0.315362 c 0.04817,-0.173449 0.0878,-0.5467 0.08806,-0.829446 l 4.72e-4,-0.514084 -0.138564,-0.406666 -0.138565,-0.406665 -0.348269,-0.361572 -0.348268,-0.361573 -0.338667,-0.09304 c -0.424072,-0.116502 -0.674834,-0.117244 -1.085492,-0.0032 l -0.323493,0.08983 -0.322552,0.291407 -0.322553,0.291406 -0.192104,0.443793 -0.192105,0.443792 0.0028,0.596501 0.0028,0.596501 0.184771,0.429512 0.184771,0.429512 0.280102,0.271485 0.280103,0.271486 0.328103,0.122006 0.328103,0.122005 0.447986,-0.03791 0.447987,-0.03791 z M 88.011,73.496164 c -0.1397,-0.03401 -0.375856,-0.125319 -0.52479,-0.202911 l -0.27079,-0.141075 -0.205915,-0.275255 c -0.113254,-0.151391 -0.421507,-0.626349 -0.685008,-1.055464 -0.2635,-0.429114 -0.517751,-0.8041 -0.565001,-0.833302 l -0.08591,-0.05309 -0.291214,0.198302 -0.291215,0.198303 -5.82e-4,0.653188 -5.82e-4,0.653188 0.163767,0.08765 c 0.09007,0.0482 0.242472,0.08765 0.338667,0.08765 h 0.174906 l -0.0012,0.148166 c -6.35e-4,0.08149 -0.02413,0.233892 -0.05221,0.338667 l -0.05105,0.1905 H 84.709 83.755083 l -0.05105,-0.1905 c -0.02808,-0.104775 -0.05157,-0.257175 -0.05221,-0.338667 l -0.0012,-0.148166 h 0.174899 c 0.09619,0 0.248595,-0.03944 0.338667,-0.08765 L 84.328,72.638043 v -1.852764 c 0,-1.019019 -0.02313,-1.913029 -0.05139,-1.986687 l -0.05139,-0.133925 h -0.153351 c -0.08434,0 -0.213616,-0.02313 -0.287275,-0.05139 l -0.133924,-0.05139 v -0.165841 c 0,-0.09121 0.03944,-0.239536 0.08764,-0.329608 l 0.08765,-0.163767 h 0.918479 0.91848 l 0.05105,0.1905 c 0.02808,0.104775 0.05157,0.25339 0.05221,0.330256 l 0.0012,0.139756 -0.3175,0.07493 -0.3175,0.07493 -0.02403,0.907149 -0.02403,0.90715 h 0.05317 c 0.02924,0 0.52583,-0.368513 1.103531,-0.818917 l 1.050359,-0.818916 V 68.777084 68.664667 H 87.16933 c -0.187178,0 -0.218274,-0.114065 -0.124089,-0.455174 l 0.08622,-0.312283 0.947767,0.02389 0.947767,0.02389 v 0.338666 0.338667 l -0.264568,0.02574 -0.264567,0.02574 -1.106067,0.931163 -1.106067,0.931164 0.682841,0.928788 0.682842,0.928787 0.252219,0.179596 0.252219,0.179596 0.477907,0.05138 0.477908,0.05138 0.02654,0.275221 0.02653,0.275221 -0.222547,0.08461 c -0.250172,0.09512 -0.555517,0.0969 -0.93119,0.0054 z m 16.45316,-0.02666 c -0.0723,-0.05821 -0.82633,-1.067858 -1.67553,-2.243666 -0.84919,-1.175809 -1.55928,-2.137834 -1.57798,-2.137834 -0.0187,0 -0.034,0.817424 -0.034,1.816497 v 1.816497 l 0.30083,0.05644 0.30083,0.05644 -0.0257,0.307233 -0.0257,0.307234 -0.91172,0.02405 -0.911714,0.02405 -0.03977,-0.108714 c -0.02188,-0.05979 -0.04976,-0.198004 -0.06195,-0.307137 l -0.02217,-0.198424 0.296334,-0.09791 0.29634,-0.09791 v -1.97857 -1.978556 l -0.29634,-0.09818 -0.296334,-0.09818 0.02217,-0.20926 c 0.0122,-0.115093 0.03957,-0.256885 0.06084,-0.315094 l 0.03867,-0.105833 h 0.675154 0.67515 l 0.44934,0.577026 c 0.24713,0.317364 0.88749,1.192574 1.423,1.944911 0.53552,0.752336 1.00224,1.368975 1.03717,1.370307 l 0.0635,0.0024 -0.001,-1.4605 -0.001,-1.4605 -0.0622,-0.0952 c -0.0342,-0.05236 -0.18603,-0.12206 -0.33737,-0.154894 l -0.27517,-0.0597 v -0.198014 c 0,-0.108908 0.0231,-0.258281 0.0514,-0.33194 l 0.0514,-0.133924 h 0.9124 0.9124 l 0.0511,0.1905 c 0.0281,0.104775 0.0516,0.25339 0.0522,0.330256 l 0.001,0.139756 -0.31749,0.07544 -0.3175,0.07544 v 2.349047 2.349047 l -0.127,0.08029 c -0.16587,0.104869 -0.19682,0.102858 -0.35318,-0.02295 z M 66.083521,73.39223 c -0.02283,-0.06228 -0.05149,-0.208021 -0.06368,-0.323877 L 65.997667,72.857706 66.294,72.814353 66.590334,72.771 V 70.739 68.707 L 66.294,68.60909 l -0.296333,-0.09791 0.02217,-0.198424 c 0.01219,-0.109133 0.03957,-0.246048 0.06084,-0.304257 l 0.03867,-0.105833 1.505491,4.76e-4 1.505491,4.76e-4 0.338666,0.0938 c 0.186267,0.05159 0.447882,0.171435 0.581366,0.266319 l 0.2427,0.172515 0.157607,0.347043 0.157608,0.347043 0.0019,0.279371 0.0019,0.279371 -0.125308,0.24232 c -0.06892,0.133276 -0.220836,0.317462 -0.337592,0.409302 l -0.212284,0.166982 0.25464,0.105476 0.25464,0.105475 0.207697,0.246834 0.207697,0.246833 0.100323,0.334851 0.100324,0.334851 -0.100324,0.334852 -0.100323,0.334851 -0.227782,0.270702 -0.22778,0.270702 -0.383797,0.176695 -0.383782,0.176687 -1.756653,0.02948 -1.756652,0.02948 z m 3.739384,-0.71499 0.238646,-0.178428 0.115378,-0.303144 0.115378,-0.303145 -0.157654,-0.317298 -0.157653,-0.317297 -0.239019,-0.174797 -0.23902,-0.174797 -1.009814,-0.03008 -1.009813,-0.03008 v 1.031823 1.031822 l 1.052462,-0.02807 1.052462,-0.02807 z M 69.602513,70.025846 69.85,69.778359 V 69.424713 69.071067 L 69.562134,68.7832 69.274267,68.495334 H 68.3768 67.479334 v 0.889 0.889 h 0.937846 0.937846 z m 20.118523,3.401321 c -0.01959,-0.03493 -0.06088,-0.169112 -0.09174,-0.298193 l -0.05612,-0.234692 0.107913,-0.0334 c 0.05935,-0.01837 0.213375,-0.05653 0.342274,-0.0848 l 0.234361,-0.0514 -0.02269,-1.997773 -0.02269,-1.997773 -0.296333,-0.09814 -0.296333,-0.09814 0.02217,-0.20926 c 0.01219,-0.115093 0.03957,-0.256885 0.06084,-0.315094 l 0.03867,-0.105833 h 0.70976 0.709759 l 0.463023,0.994833 c 0.254662,0.547159 0.688256,1.517489 0.963539,2.156289 l 0.500521,1.161456 0.05757,-0.06079 c 0.03166,-0.03343 0.367567,-0.784689 0.746455,-1.669456 0.378892,-0.884766 0.791822,-1.818216 0.917623,-2.074333 L 95.038333,67.945 H 95.758 96.477667 l 0.02745,0.287455 0.02745,0.287455 -0.112114,0.07108 c -0.06166,0.0391 -0.19784,0.07166 -0.302615,0.07238 l -0.1905,0.0013 v 2.022942 2.022941 l 0.133924,0.05139 c 0.07366,0.02826 0.20701,0.05139 0.296334,0.05139 H 96.52 l -0.0013,0.232833 c -7.94e-4,0.128058 -0.03237,0.281813 -0.07036,0.341676 l -0.06906,0.108843 -0.924478,-0.02417 -0.924475,-0.02417 -0.02627,-0.3175 -0.02627,-0.3175 0.195609,-0.0013 c 0.107587,-7.15e-4 0.244046,-0.03204 0.303247,-0.06961 l 0.107632,-0.06831 -0.02297,-1.70561 -0.02297,-1.70561 -0.800586,1.865917 c -0.440323,1.026254 -0.852057,1.939403 -0.914967,2.02922 L 93.2084,73.321345 H 93.011218 92.814053 L 92.347015,72.28417 c -0.25687,-0.570442 -0.648119,-1.456267 -0.869443,-1.9685 -0.221324,-0.512234 -0.434623,-0.967529 -0.473998,-1.011767 l -0.07159,-0.08043 v 1.693333 1.693333 l 0.1016,0.1016 c 0.05588,0.05588 0.186981,0.1016 0.291337,0.1016 0.104355,0 0.213858,0.03903 0.24334,0.08673 l 0.0536,0.08673 -0.05533,0.251934 -0.05533,0.251935 h -0.87726 -0.877276 z m 7.444994,-0.127 c -0.02808,-0.104775 -0.05157,-0.252935 -0.05221,-0.329244 l -0.0011,-0.138744 0.288158,-0.05406 0.288161,-0.05406 0.05051,-0.131622 c 0.02778,-0.07239 0.04992,-0.93813 0.04921,-1.923863 l -0.0013,-1.792242 -0.0622,-0.0952 c -0.03421,-0.05236 -0.186029,-0.12206 -0.33737,-0.154894 l -0.275167,-0.0597 v -0.198015 c 0,-0.108908 0.02313,-0.258281 0.05139,-0.331939 l 0.05139,-0.133925 h 0.954733 0.954736 l 0.05105,0.1905 c 0.02808,0.104775 0.05157,0.250455 0.05221,0.323734 l 0.0011,0.133235 -0.3175,0.07843 -0.3175,0.07843 v 1.989667 1.989667 l 0.3175,0.07843 0.3175,0.07843 -0.0011,0.133235 c -5.29e-4,0.07328 -0.02413,0.218959 -0.05221,0.323734 l -0.05105,0.1905 H 98.171 97.217082 Z m 9.01353,0.0353 c -0.0507,-0.09479 -0.0922,-0.25104 -0.0922,-0.347235 v -0.174899 h 0.23707 0.23707 l 0.1016,-0.1016 0.1016,-0.1016 V 70.682712 68.75529 l -0.16377,-0.08764 c -0.0901,-0.04821 -0.2425,-0.08765 -0.3387,-0.08765 h -0.1749 v -0.195484 c 0,-0.107517 0.0502,-0.264084 0.11147,-0.347927 l 0.11147,-0.152443 1.64721,0.03043 1.64721,0.03043 0.56993,0.280608 0.56993,0.280609 0.29661,0.388453 0.2966,0.388453 0.12645,0.425806 0.12646,0.425806 v 0.616456 0.616457 l -0.17216,0.46013 -0.17216,0.46013 -0.33265,0.377915 -0.33265,0.377914 -0.44769,0.198676 -0.44769,0.198677 -1.70694,0.03336 -1.70693,0.03336 z m 3.42144,-0.597491 c 0.43002,-0.198468 0.66369,-0.453918 0.89636,-0.979894 l 0.18496,-0.418142 0.007,-0.55447 0.007,-0.554471 -0.15089,-0.439638 -0.15088,-0.439638 -0.31501,-0.324593 -0.315,-0.324593 -0.3458,-0.103602 -0.34579,-0.103602 h -0.77334 -0.77334 V 70.696667 72.898 l 0.86783,-0.0019 0.86783,-0.0019 z m 2.56939,0.546423 -0.094,-0.206268 0.0508,-0.132399 0.0508,-0.132399 h 0.19739 0.19739 l 0.1016,-0.1016 0.1016,-0.1016 V 70.682712 68.75529 L 112.6122,68.66765 C 112.5222,68.61944 112.36976,68.58 112.27357,68.58 h -0.1749 v -0.174899 c 0,-0.0962 0.0394,-0.248595 0.0876,-0.338667 l 0.0876,-0.163767 h 1.90411 1.90412 l 0.0832,0.218755 c 0.0457,0.120315 0.14345,0.483789 0.21713,0.80772 l 0.13396,0.588964 -0.10259,0.123614 -0.1026,0.123614 h -0.19285 -0.19286 l -0.1005,-0.4445 c -0.0553,-0.244475 -0.11916,-0.512324 -0.14196,-0.595221 l -0.0415,-0.15072 -1.03065,0.02372 -1.03065,0.02372 -0.0243,0.828828 -0.0243,0.828828 0.4476,-0.06571 c 0.24619,-0.03614 0.57467,-0.06322 0.72998,-0.06018 l 0.28236,0.0055 0.0762,0.120348 c 0.0419,0.06619 0.0768,0.203912 0.0775,0.306046 l 0.001,0.185699 -0.17846,0.125003 -0.17847,0.125002 -0.26603,-0.162218 -0.26604,-0.162218 -0.36236,-3.18e-4 -0.36236,-3.17e-4 0.0237,1.0795 0.0237,1.0795 1.10537,0.02351 1.10536,0.02351 0.1964,-0.679676 0.19639,-0.679677 h 0.14256 c 0.0784,0 0.21294,0.05147 0.29897,0.114373 l 0.15641,0.114372 -0.10308,0.414794 c -0.0567,0.228137 -0.1606,0.61482 -0.2309,0.859295 l -0.12783,0.4445 h -2.02781 -2.0278 z m 4.92127,0.03257 -0.093,-0.173701 0.0265,-0.186132 0.0265,-0.186133 0.21166,-0.02928 c 0.11642,-0.0161 0.25929,-0.06839 0.3175,-0.1162 l 0.10584,-0.08692 v -1.8777 -1.8777 l -0.1016,-0.1016 -0.1016,-0.1016 h -0.23707 -0.23707 v -0.195484 c 0,-0.107517 0.0501,-0.264014 0.11136,-0.347771 l 0.11135,-0.152287 1.68781,0.03732 1.68782,0.03732 0.29633,0.134184 c 0.31305,0.141755 0.67777,0.490051 0.83632,0.798655 l 0.095,0.184934 v 0.348437 0.348438 L 121.71,70.016068 c -0.16655,0.322078 -0.5009,0.575647 -0.90115,0.683422 l -0.32702,0.08806 0.28964,0.254314 0.28965,0.254314 0.226,0.59144 c 0.1243,0.325292 0.28217,0.647603 0.35081,0.716248 l 0.12481,0.124808 0.22679,0.0013 c 0.12473,7.15e-4 0.27774,0.0336 0.34002,0.07308 l 0.11324,0.07178 -0.0286,0.201299 -0.0286,0.201298 -0.23719,0.113333 -0.23719,0.113333 -0.33284,-0.05623 -0.33284,-0.05623 -0.20656,-0.245486 -0.20656,-0.245486 -0.18156,-0.488154 c -0.0999,-0.268485 -0.27792,-0.65358 -0.3957,-0.855766 l -0.21415,-0.367612 -0.35171,-0.159695 -0.3517,-0.159696 -0.4445,-0.0019 -0.4445,-0.0019 0.001,0.8255 0.001,0.8255 0.0625,0.09819 0.0625,0.09819 0.253,0.02881 0.253,0.02881 0.0294,0.154864 c 0.0162,0.08517 0.006,0.247099 -0.0221,0.359833 l -0.0514,0.20497 h -0.92674 -0.92674 z m 3.69381,-3.331499 0.28786,-0.287867 V 69.469367 69.24113 l -0.14444,-0.244529 -0.14445,-0.244528 -0.27052,-0.128368 -0.27051,-0.128368 h -0.89737 -0.89737 v 0.889 0.889 h 1.02446 1.02447 z"
       style="fill:#000000;stroke-width:0.264583"
       id="path1" />
  </g>
</svg>
